

Cover -



    	http://desibbrg.org/images/20443333614275977737.jpg

Screens -

 
http://desibbrg.net/imghost/show.php?img=430025_Sahib.Bahadur.1977.1CD.Dvdrip.X264.AAC.RRG.DADA.DBBIANS.Comthumbs.jpg.html


Info -


General

Format                                   : MP4 Video
File size                                : 992 MiB
Duration                                 : 2h 30mn
Overall bit rate                         : 922 Kbps


Video
Format                                   : AVC
Format/Info                              : Advanced Video Codec
Format profile                           : Main@L3.0
Format settings, CABAC                   : Yes
Format settings, ReFrames                : 3 frames
Format settings, GOP                     : M=1, N=25
Codec ID                                 : 7
Duration                                 : 2h 30mn
Bit rate                                 : 785 Kbps
Width                                    : 640 pixels
Height                                   : 480 pixels
Display aspect ratio                     : 4:3
Frame rate mode                          : Constant
Frame rate                               : 25.000 fps
Color space                              : YUV
Chroma subsampling                       : 4:2:0
Bit depth                                : 8 bits
Scan type                                : Progressive
Bits/(Pixel*Frame)                       : 0.102
Stream size                              : 845 MiB (85%)

Audio
Format                                   : AAC
Format/Info                              : Advanced Audio Codec
Format profile                           : LC
Codec ID                                 : 10
Duration                                 : 2h 30mn
Bit rate                                 : 129 Kbps
Channel(s)                               : 2 channels
Channel positions                        : Front: L R
Sampling rate                            : 44.1 KHz
Compression mode                         : Lossy
Stream size                              : 138 MiB (14%)
 
http://www.imdb.com/title/tt0155135/

About this movie

    Genres:
Indian Cinema, Classics, Drama
    Language:
Hindi
    Running time:
2:30:30
    Released:
Jan 1, 1977

Cast & Crew
Cast

    Dev Anand
    Jalal Agha
    Ajit
    Asrani
    Master Bhagwan
    Anil Dhawan
    Dhumal
    Manorama
    I.S. Johar
    Bharat Kapoor

Directors

    Chetan Anand

Producers

    Chetan Anand




A small town in the Indian valley is run by a pack of corrupt officials who wont work unless they are bribed. The pack of corrupt officials include, Deputy collector, Hare Murari along with Police Superintendent, Pasupathi; a doctor, a forest officer, a principal, a Judge and Professor Rampyare. When they learn that a senior officer is coming on a secret inspection to their town, they assume it to be Prem Pratap (Dev Anand). In reality Prem Pratap happens to be an actor with a traveling drama company. Subsequently, Hare Murari and the corrupt officials conclude that Prem Pratap is a Government Official who has come incognito to investigate and expose them. Their fears worsen when they find out that Prem Pratap has been speaking to the President of India. Now the corrupt pack comes together to try and portray themselves as honest and law-abiding citizens. Can the corrupt officials be successful in pulling off the stunt? How will the comical mayhem play out to change the lives of the people in the town? 